/* XPM */
static char *_bc44a7ed73e4db7f1b5c9f670167db0pOkQ5SFBDsTV1hsu[] = {
/* columns rows colors chars-per-pixel */
"59 59 256 2 ",
"   c None",
".  c #191A1B",
"X  c #100C14",
"o  c #2B190D",
"O  c #23221E",
"+  c #3D230E",
"@  c #081726",
"#  c #2B1C2E",
"$  c #172B31",
"%  c #292827",
"&  c #362728",
"*  c #36322B",
"=  c #272B33",
"-  c #2D3435",
";  c #343433",
":  c #3C3C3B",
">  c #383839",
",  c #312D2F",
"<  c #17201C",
"1  c #4E2F18",
"2  c #573925",
"3  c #433A3A",
"4  c #4C332D",
"5  c #613E26",
"6  c #6A3B1C",
"7  c #3C413D",
"8  c #45433C",
"9  c #594638",
"0  c #5E422A",
"q  c #694829",
"w  c #774B28",
"e  c #664A38",
"r  c #775438",
"t  c #6D5339",
"y  c #616B31",
"u  c #113556",
"i  c #373B45",
"p  c #2E3947",
"a  c #061A4F",
"s  c #483B45",
"d  c #553944",
"f  c #413C53",
"g  c #73384A",
"h  c #3D4242",
"j  c #384449",
"k  c #3C4754",
"l  c #35514D",
"z  c #347A4E",
"x  c #334B63",
"c  c #0F4E54",
"v  c #444443",
"b  c #494945",
"n  c #4B4C4B",
"m  c #464749",
"M  c #554A48",
"N  c #49534A",
"B  c #52514D",
"V  c #484C54",
"C  c #564B54",
"Z  c #4B5456",
"A  c #545453",
"S  c #54545B",
"D  c #555A5C",
"F  c #5C5C5C",
"G  c #595855",
"H  c #654B44",
"J  c #685745",
"K  c #775847",
"L  c #665C58",
"P  c #734C51",
"I  c #5A6557",
"U  c #4B6D54",
"Y  c #64645C",
"T  c #766759",
"R  c #77664C",
"E  c #5C5D62",
"W  c #565863",
"Q  c #4E5465",
"!  c #6C5563",
"~  c #5C6365",
"^  c #557466",
"/  c #656462",
"(  c #6C6C6B",
")  c #676768",
"_  c #796B68",
"`  c #77746B",
"'  c #686D73",
"]  c #6B7473",
"[  c #747473",
"{  c #7B7975",
"}  c #7C7C7B",
"|  c #767778",
" . c #736F6E",
".. c #B43033",
"X. c #963138",
"o. c #D11610",
"O. c #CF2C12",
"+. c #D2342C",
"@. c #E83033",
"#. c #E3130F",
"$. c #B86E0E",
"%. c #8B5C36",
"&. c #8C552D",
"*. c #986338",
"=. c #8C7032",
"-. c #A56837",
";. c #AC723B",
":. c #985A1F",
">. c #C77E16",
",. c #D0493D",
"<. c #CB7236",
"1. c #E2513B",
"2. c #983A50",
"3. c #914F51",
"4. c #866249",
"5. c #966949",
"6. c #8B6956",
"7. c #98734D",
"8. c #A67956",
"9. c #AF744B",
"0. c #8E5963",
"q. c #887669",
"w. c #967769",
"e. c #857A79",
"r. c #8C6F6F",
"t. c #AB746C",
"y. c #B24F5F",
"u. c #D25352",
"i. c #E4544D",
"p. c #D56953",
"a. c #D06D6E",
"s. c #E06B5C",
"d. c #32AF33",
"f. c #1DAC25",
"g. c #79A701",
"h. c #7CA90B",
"j. c #6C8D33",
"k. c #4BB72F",
"l. c #71A017",
"z. c #28C831",
"x. c #3CA65E",
"c. c #4F8858",
"v. c #708F4E",
"b. c #46AC4F",
"n. c #79867A",
"m. c #748F71",
"M. c #51AD70",
"N. c #70B675",
"B. c #488667",
"V. c #2AC544",
"C. c #5FD05B",
"Z. c #85B100",
"A. c #B08B33",
"S. c #A6A329",
"D. c #D68F08",
"F. c #CEAF0D",
"G. c #D0902D",
"H. c #FF8D37",
"J. c #E0A435",
"K. c #A4C637",
"L. c #D5C40B",
"P. c #E5CA01",
"I. c #EDD91D",
"U. c #EAD425",
"Y. c #B28855",
"T. c #B0AE52",
"R. c #86827D",
"E. c #99877B",
"W. c #8F8A6F",
"Q. c #A78674",
"!. c #B28B73",
"~. c #8BAA6A",
"^. c #AEAA79",
"/. c #999D58",
"(. c #D08F4C",
"). c #F4934C",
"_. c #D0AD53",
"`. c #F5A94D",
"'. c #D49A75",
"]. c #C88E70",
"[. c #EE956A",
"{. c #CDAB6C",
"}. c #FDB67B",
"|. c #EDA774",
" X c #B4CE6D",
".X c #B9CC4E",
"XX c #DFD965",
"oX c #7D7F83",
"OX c #AE7686",
"+X c #8B7382",
"@X c #7B8585",
"#X c #7A928B",
"$X c #7DA78F",
"%X c #7CC29C",
"&X c #848482",
"*X c #8C8C8A",
"=X c #888986",
"-X c #95948C",
";X c #8C8A92",
":X c #8D9395",
">X c #939392",
",X c #9B9C9C",
"<X c #95989A",
"1X c #918989",
"2X c #A89587",
"3X c #A59495",
"4X c #B08F8F",
"5X c #95AD93",
"6X c #B6A49B",
"7X c #AEA793",
"8X c #989CA1",
"9X c #8F96A4",
"0X c #B09AA4",
"qX c #9CA3A4",
"wX c #9AB6AB",
"eX c #A7A7A8",
"rX c #B7A8A8",
"tX c #BBA8B3",
"yX c #B7B7B9",
"uX c #ADB1B0",
"iX c #CA9390",
"pX c #F3948A",
"aX c #CEA991",
"sX c #E7AA89",
"dX c #FFBA8A",
"fX c #FDB994",
"gX c #EDB192",
"hX c #CF9CA8",
"jX c #C7B9BA",
"kX c #D4B7B0",
"lX c #F0B4A9",
"zX c #AAD2B0",
"xX c #FFC798",
"cX c #F5C88D",
"vX c #FAF389",
"bX c #CDC8B1",
"nX c #FCC6A7",
"mX c #FBD9B4",
"MX c #F2CCAF",
"NX c #FFFBAF",
"BX c #DDC699",
"VX c #BABCC2",
"CX c #CEB8C4",
"ZX c #BCC1C4",
"AX c #BFFECA",
"SX c #C6C4C5",
"DX c #CED5D3",
"FX c #D7D8D7",
"GX c #D0CACB",
"HX c #F0D4CA",
"JX c #FCF4D5",
"KX c #E8E8E7",
"LX c #FFFFFE",
"PX c #F8FAF7",
"IX c #F2F6ED",
"UX c #DBDEE3",
/* pixels */
"                                                                                                                      ",
"  7.7.        > 8.r         J 8.4         6.8.          8.4.        M Y.9         4.8.O         8.4.        b Y.e     ",
"V aX'.s       ( fXw.        E.fXT         ].sXb       Y gXQ.=       e.fXT         2XgXM       F sX!.:       _ fX0.    ",
"' DXuXG       1XUX*X8       eXDX/       Y ZXhXP       =XFXQ.8       0XHXr.      L bXbXR       oXDX-XN       ,XDXm.i   ",
",XFX&X{       SXyXR.G     n GX' ) %     :XlX#.5.      VX|.$.R     7 DX).p.=     oXMXP./.      yX Xg.Y       DXC.d.V   ",
"n =Xn.7       / ;X) %       ( ' v       N r.y.3       F Q.R *       _ t.P       > W.Y.9       G m.` >       ~ m.I     ",
"  . X           .             .             @           @             @             @           @ X           .       ",
"  8.9.        3 Y.r         H (.4         5.9.O       > Y.%.        e p.9         4.9.#         8.5.        d Y.e     ",
"i aXaXv       L nXQ.        R.mX_         6XkXm       G MX4X=       { mX`         4XlXG       Z lXiX;       ` mXw.    ",
"B uX<X;       ' VX) %       } 8X:       M 0Xt.4       L aXT O       r.hX2.      8 ^.7X4       I wXn.,       ] wXU     ",
"eXIX} &X      UXSX&X/     B KX( [ %     8XHX#.t.      DXcX$.T     > KX`.(.p     ;XJXP.T.      SXXXg.`       UXC.b.E   ",
"8XZX=X;X      bXqX>X)     A yXv [ ;     :XpX#.t.      jXJ.>.q.    - lX).[.i     +XXXP.T.      uXK.g.m.      zXz.b.E   ",
"/ *X) G       } } E 8       } n n       I r.X.H       { 5.w v       e.y.3.      Z W.=.K       [ m.U n       n.^ x 8   ",
"  3 3           8 *         * 9 O         : m           l p           N $         ; j           3 s           9 4     ",
"V ].(.=       / [.5.        q.[.H         !.(.;       E [.5.        _ [.t         Q.).:       W '.9.$       _ [.K     ",
": rXaXi       Y MX&X        e.HX)         6XjXn       G bX3X-       ` HX(         3XCXZ       n kX0X;       _ HXr.    ",
" .uXqXn       R.yX} 3     G =X:XB >     | iXa.M       ` {.7.8     Z 4XpX5.&     ( 7XJ.y       n.5Xv.8       #X%XU >   ",
"IXVX=X<Xb   ) KXqXqX}     &XKXE  .I     kXlXO.p.n   D mX{.D.7.    *XJX_.H.0.    7XNXL.I.S   n DX.XZ.v.    @XIXk.z.m.  ",
"F eX:XY %   O  .uX| B     % n.) b 8     b a.@.P =   < T _.$.M     & ].[.u.m     > XXL.=.;     I  Xl.A     % m.C.c.N   ",
"  D m *       8 D :         A s >         S 4 -       j H 8         x P :         Q 9 p         W l         C Z >     ",
"  2 e           e 9           r           2 J           9 9           9 4         1 H           0 e           e 4     ",
"j sX'.>       / dX8.        E.cXL         aX|.7       ~ fXt.-       e.xXT         2XdXM       G gX].-       q.xX6.    ",
"7 rXeX3       G jX} O       [ CXB       & 4XrX3       9 jX&X%       r.CX!       & E.tX3       N yX;X,       ) SX(     ",
"FXFX-XY ,   G KXSX&XB     @XIX| b 3     rXKXu.X.;   B GXBX$.q      .JX|.<.d     7XJXL.S.>   i SXbXl.y     ^ KXN.b.N   ",
"KXyX@X>X>   G KX<X,X|     { DXB ) N     iXpXo.1.h   N MXT.D.A.     .HX`.`.K     ^.vXL.I.m   7 bXK.Z.j.    ) AXd.z.B.  ",
"/ <X=XB     O { >X[ :     > [ A 8 %     S a.o.g .     T <.:.4     ; a.s.2.&     B _.F.r .     ( ~.j.v     * m.M.z >   ",
"  n m           V h         n V v         Z k           V j         j f h         k m p         V i         s V s     ",
"  %.*.          -.w         2 ;.1         r *.          *.&.        2 ;.2         w ;.X         4.%.        & ;.5     ",
"V aXsXm       ( nXQ.        Q.mX_         aXMXV       Y nX4X>       R.mX`         6XlXA       I fXiXh       e.nXw.    ",
"=XeX<X7       =XeX| ;     ) @X9Xv %     >X0Xt.d       ,X7X6.&     @X0XiX3.#     >X6X^.e       ,XwXn.-       8XwX^ >   ",
"SXFX&X+XB   [ KXuX=X .;   &XPXe.> B   G PXnX1...L   <XLX{.D.&.m   GXJX).H.3.  3 IXvXP.F.R   -XPXT.Z.y I   ZXIXk.d.U : ",
"eX9X:Xn.b   / eX=XqX/ >    .<XV Z h   > 4X@.@.+.V   W {.G.G.:.p   r.}.<.).3.  % 2XI.F.P.t   F 5Xg.Z.j.Z   @XN.f.V.z & ",
"F } R.v       Y &X/ i     B B L 8 ;     S 3...s       L *.&.>       0.s.3.#     S Y.G.M       Y m.v.i       ^ M.U s   ",
"  = =           =             p           c c           u u           u             a           # #           &       ",
"  &.*.          *.w         1 -.1         &.:.          :.&.        1 9.2         w ;.          4.K           7.5     ",
"V aX'.7       ( fX8.        1XcXT         aXsXm       ) nXQ.-       e.dXT         4XsXM       I gX].p       _ dX6.    ",
",XyXeX[ ,   v eXyX>XF     L yX8X} n     } tXOXe.:   h ,XrXE./     G hXtXOXV     ( bX7X1Xh     *XVX$X'     B qXqX:XE   ",
"LXSXn.,XG   [ LX<X,X&X    rXKXh [ )     DXlXo.s.~   ' IXA.>.Y.    9XPX<.).e.    ZXNXD.U.)   Q IXK.g.~.    ;XLXf.V.#X  ",
">XuXeX( %   ; ,XeX>XA     m ,X} F >     _ hXi.0.-   % E.aX(.e     M lXa.s.d     T cXT.A.;   . *X^.j.I     h wXN.c.N   ",
"B W j A       / V Z 8     % ) p W %     s W > D       E s b m     . E i Q =     > ^ i W       G Q V n       ) k W :   ",
"  5 q           q 2           r           0 t           e e           t           1 e           5 q           w       ",
"h '.'.;       L dX7.        w.}.J         ].[.i       D }.8.$       q.}.K         !.|.s       A sX!.=       _ dX4.    ",
"F yX6XA       } jX1X8     , >XjX( %     A tXeXE        .jX+Xb       r.CX[ =     n rXtX~       G aX3XV       ] jX+X:   ",
"IXyX=X<XF   [ KX>X>XR.    3XUXN { (     ZXMX+.t.~   ) KX{.>.W.    :XIXs.[.e.    yXNXF._.E   S UXzXj.~.    &XPXM.M.#X  ",
"rXeXoX=X;   8 yX:X<X[     I eXZ E b     1XpX+.u.j   p 7X{.G.=.    W mX).`.4.    W.vXF.U.n   = eX.XZ.j.    Z zXk.z.c.  ",
"=XeX>X) ;   > *X,X&XG     b &XF m 8     ! a.#.3.>   * w.(.$.H     b iX).u.M     L XXF.A.s   % m.~.j.v.    v %Xx.x.N   ",
"S ) Z G       ( D D v     % | V E %     V ] V W       ) W A n     . oXf E %     > | V W       F / Z n     X  .Z E ;   ",
"  w %.          *.5         + -.+         q *.          %.w         + *.1         6 *.          r r         o *.2     ",
"Z gXsXm       { nX!.        2XxXq.      k kXgXN       [ nX4X-       1XxX`         aXgXS       / nXiXi       e.nXr.    ",
"] eX<Xv )   }  .uX' A     { ' eX- /   D { 4X4X4 '   | T 6X6.M E   +X0.rX2.E     W.2X7Xq '   { Y 5XR.N )   e.^ wX^ ~   ",
"LXSX&X>X*X  SXLX<X1X>X(   IXFXF b }   [ LXlX1.+.1X  yXLX{.D.A.'   UXPX).H.'.  G PXNXL.P.Q.  eXLX XZ.K.n.  FXLXC.d.M.C ",
"yXuX@X} ;   v VX<X:XY     ) eXV S >     3XpX+.+.:   j aX_.G.&.    / mX).).t     E.vXL.L.8   ; wXK.Z.y     I zXd.z.U   ",
"e.,X=X/ *   ; =X>X{ A     v =XL A 7     ! a...! -   = q.Y.:.M     m iXs.y.d     L {.G.7.>   % | ~.v.I     s :XM.B.S   ",
"  j i b       n p j         S p D         x c N       N x x         l u l         x u l         f i         C i d     ",
"  w %.          %.w         1 %.          6 *.          &.w           *.2         6 *.          K K           %.5     ",
"k sX'.:       ( fX8.        Q.cXT       j aXsXm       / fX!.=       q.cXT         4XsXn       D gX!.-       q.fX6.    ",
"n.yX,X)       :XyX=XA     A eXeX( v     ' tX3X'       1XrXE.D     B 3XtX+Xf     ( rX6X[       | rX:XW     b *XuX@XG   ",
"LXuX{ 3XL   } PX&X>X&X    eXKX; [ (     DXMXo.a.~   ' PXY.D.W.    9XPX<.`.q.    CXNXF.XX)   S IX Xg.~.    =XLXb.V.*X  ",
"&XyX8X}     O ,XyX>X)     3 8X} F v     ! lXi.9.=     E.BX(.=.    > lX}.).J     I MXL.F.7     m.XXZ.R     7 wXC.d.U   "
};
