/* XPM */
static char *_a1fb939518d4499d0086f9a7f4300b5GjvYnfcP43YYjAFQ[] = {
/* columns rows colors chars-per-pixel */
"59 59 240 2 ",
"   c None",
".  c #480002",
"X  c #580001",
"o  c #46001F",
"O  c #760D1A",
"+  c #6F0410",
"@  c #580036",
"#  c #4C002B",
"$  c #781936",
"%  c #740F26",
"&  c #7D243F",
"*  c #340076",
"=  c #5B0557",
"-  c #630849",
";  c #731945",
":  c #721E57",
">  c #7C2245",
",  c #782454",
"<  c #450069",
"1  c #5A0866",
"2  c #46007B",
"3  c #6D1E65",
"4  c #66196C",
"5  c #691D72",
"6  c #7B316F",
"7  c #6F216E",
"8  c #841C17",
"9  c #85190B",
"0  c #8E2105",
"q  c #932504",
"w  c #9A2C03",
"e  c #9B3308",
"r  c #932A16",
"t  c #9A381C",
"y  c #8A271F",
"u  c #A43700",
"i  c #B33F00",
"p  c #8B2924",
"a  c #973528",
"s  c #882B35",
"d  c #933836",
"f  c #BD4B00",
"g  c #B44504",
"h  c #BE5504",
"j  c #AD491A",
"k  c #B55618",
"l  c #B14E17",
"z  c #9F4129",
"x  c #9B4437",
"c  c #A44728",
"v  c #A64E33",
"b  c #AA5135",
"n  c #A8533A",
"m  c #B25A37",
"M  c #AB5322",
"N  c #BB6739",
"B  c #C65400",
"V  c #D25D00",
"C  c #CD6401",
"Z  c #C76507",
"A  c #D36200",
"S  c #D86C01",
"D  c #D87401",
"F  c #E27B00",
"G  c #CA793B",
"H  c #832B46",
"J  c #8B3547",
"K  c #923B49",
"L  c #8D3A5A",
"P  c #863865",
"I  c #9E3E69",
"U  c #8E4156",
"Y  c #974C4C",
"T  c #AC5945",
"R  c #B66646",
"E  c #B76B55",
"W  c #BC7254",
"Q  c #BE755A",
"!  c #AB6555",
"~  c #914E7C",
"^  c #91486E",
"/  c #A05B68",
"(  c #BC7762",
")  c #AB696B",
"_  c #C97E5B",
"`  c #C67C63",
"'  c #DE8600",
"]  c #F58800",
"[  c #FA9A05",
"{  c #F4910A",
"}  c #FAA800",
"|  c #FBA718",
" . c #FFBA1A",
".. c #FFBA27",
"X. c #FEBA38",
"o. c #F2A62C",
"O. c #FFC01A",
"+. c #FFC72B",
"@. c #FFC336",
"#. c #CE905E",
"$. c #E59640",
"%. c #C88567",
"&. c #D9986B",
"*. c #C88B76",
"=. c #D49978",
"-. c #CA9273",
";. c #D8AF72",
":. c #E3A56E",
">. c #E5AB54",
",. c #FFDA4E",
"<. c #FCCA53",
"1. c #FED151",
"2. c #FFE44D",
"3. c #FFE75B",
"4. c #FFCA69",
"5. c #FFDB75",
"6. c #F6D06C",
"7. c #FEE778",
"8. c #FFF771",
"9. c #601486",
"0. c #AC779B",
"q. c #AE758B",
"w. c #90508C",
"e. c #BC8893",
"r. c #B689A8",
"t. c #BE97B4",
"y. c #CC9889",
"u. c #D59D82",
"i. c #C69190",
"p. c #D8A68F",
"a. c #D6A795",
"s. c #D5AD91",
"d. c #FFBA8E",
"f. c #FFB587",
"g. c #E7BC9F",
"h. c #E6B194",
"j. c #FFBD92",
"k. c #F5BB98",
"l. c #E4B085",
"z. c #FF83B4",
"x. c #DAAEA3",
"c. c #DCB4A7",
"v. c #CCA6B7",
"b. c #D8B6BD",
"n. c #E5BCA7",
"m. c #E1BDB4",
"M. c #CA9EAB",
"N. c #FBC889",
"B. c #FFD98B",
"V. c #FFC39C",
"C. c #FCC396",
"Z. c #FBD699",
"A. c #EDCA96",
"S. c #FEE783",
"D. c #FFE891",
"F. c #EAC6AD",
"G. c #FFC6A2",
"H. c #FFC9A6",
"J. c #FFCCAB",
"K. c #F5C6AC",
"L. c #FED6A6",
"P. c #E8C8BA",
"I. c #FFCDB1",
"U. c #F1CEB5",
"Y. c #FFD2B5",
"T. c #FFD5BB",
"R. c #FCDABC",
"E. c #F7DAB5",
"W. c #FFE8AB",
"Q. c #FFF8AD",
"!. c #FEE3B3",
"~. c #FEEAB8",
"^. c #FFF3BE",
"/. c #FFF6B7",
"(. c #BEA2C9",
"). c #B595CD",
"_. c #DBBBC4",
"`. c #D7B8CC",
"'. c #CFB5D2",
"]. c #ECCCC3",
"[. c #E4C8C9",
"{. c #EED2C5",
"}. c #EDD4CE",
"|. c #FFDBC4",
" X c #F1D4CB",
".X c #F3DACD",
"XX c #FFDECA",
"oX c #F6D7C4",
"OX c #EDD5D3",
"+X c #EBD3DC",
"@X c #EEDCDC",
"#X c #EAD7D6",
"$X c #F3DCD3",
"%X c #F3DDDA",
"&X c #F0D5D1",
"*X c #EBCECD",
"=X c #FEE2CC",
"-X c #FEECCC",
";X c #FBE2C6",
":X c #FFF5CC",
">X c #FDFAC9",
",X c #F5E0D5",
"<X c #FEE4D4",
"1X c #FDEAD4",
"2X c #F5E3DC",
"3X c #FBE6DA",
"4X c #FEEADC",
"5X c #F7EBDA",
"6X c #FFFCD5",
"7X c #FFF4DC",
"8X c #FFFBDD",
"9X c #FEF3D3",
"0X c #EFE0DC",
"qX c #EBDAE7",
"wX c #E7DBF3",
"eX c #F5E4E3",
"rX c #FAE6E1",
"tX c #FEEEE4",
"yX c #F3E4EA",
"uX c #FDEEEB",
"iX c #F7EAE7",
"pX c #FFF2E5",
"aX c #FFFCE4",
"sX c #FFF3EB",
"dX c #FFFCEC",
"fX c #F6F5E8",
"gX c #ECE3FE",
"hX c #EDECFF",
"jX c #EBE2F3",
"kX c #F5ECF4",
"lX c #F3ECFE",
"zX c #F6E9F4",
"xX c #FEF5F2",
"cX c #FFFCF4",
"vX c #F5F3FF",
"bX c #FCF5FC",
"nX c #FFFEFE",
"mX c #F6F0F0",
"MX c #EDE8EF",
"NX c #DAC9DD",
/* pixels */
"                                  c ] W.lXdXxXsXcX~ O v = : v O 0.nXzXsXaXlX5.D x                                     ",
"                                v P.L.;XnXaXuXsXsX[._.l.V D g._.*XnXsXpXsXnXR.!.x.t                                   ",
"                              ^ n.nXnXsXxXsXsXsXuXcXnX8X8.S.sXnXdXxXtXuXsXsXsXnXxXp.P                                 ",
"                            X / nX.XoXcXuXpXpXtXpX%XOX2XgXgX XOXeXpXsXsXtXsXnXU.pXnXL                                 ",
"                            j =.sXnXxXxXsXsXsXsXpXcXcXsX8X7XcXcXsXsXpXsXsXtXuXsXnX2X_                                 ",
"                        H p n.nXpXpXxXsXtXtXtXtXtXtXsXuXuXsXtXsXsXuXpXtXsXT.j.R.sXaXT.#.s H                           ",
"                      H F Z.jXaXcXtXsXcX|.G.H.H.tXtXcX<XI.sXJ.<X4XH.xXsXJ.H.V.H.nXcXJ.qX5.V :                         ",
"                      7 A.nXjXaXnXxXT.H.J.j.G.<XtXnX<XH.tXsX=X|.H.H.cXxXG.V.|.pXxXI.N.+XnXy.1                         ",
"                    r Z qXzX1XnX4X|.j.j.G.H.<XxXsXT.H.sXxXtXnXR.f.XX4X|.Y.j.T.xXJ.V.pXR.lXP.f J                       ",
"                  a D <.:XnXdXnXtXj.H.J.d.<XcX4XsX=X4XxXtXxXXXT.d.Y.sXV.d.J.3XtXj.V.sXnXfX>XX.Z s                     ",
"                p D ,.bXbXaXbXuXXXH.V.V.4XxX<XsXsX4XtXsXsX3XH.V.V.T.3XH.H.pXcXXXG.J.4XbXaXbXxX+.Z                     ",
"            H 3 Z <.bXpXpXxXxXXXV.H.H.=XnXXXH.sXxXJ.R.nX<XH.H.V.XXtXV.H.tXxX|.j.I.sXuXtXnX8XsXbX..k 3 s               ",
"          , ' Z.MX>XbXpXpXtXsX<XV.G.3XcXT.I.sXtXtXxXXXG.I.H.V.XXcX4XV.V.tXXXd.T.tXsXuXsXsXpXsXsX9XwX4.C 3             ",
"          a Z.nXwXcXsXbXsX4XcX|.V.3XsXbXsXaXnXbXsX=Xj.d.H.I.XXtXnX<XI.pXnX|.d.Y.xXpXtXsX4XsXxXpXcXjXcX;.8             ",
"      . j n.gXqX:XdXxXsXsXtXsX<X;XxXbXpXfX+X X6XsX=X-XpXW.!.nXnXcX4X!.@X+X!.=XtXpXsXsXtXsXtXuXnXaX1XgXqXl.q .         ",
"    ^ ) =.tXaXdXnXnXxX4XtXuXtXsXnXcX8XmXvXnXbXlXcXmX@XrXhXlX$X}.fXnXhXnXnXlXsXaXnXbXsXtXtXuXsXtXbXnX:XnXmX*./ L       ",
"  n x.nX<XV.tXbXtXtXtXsXtXpXuXpX7XeXzX9XE.`.].^.3XfXnXdX/.^.cXnXmX1X~.[.`.E.7XzX,X8XsXiXsXsX4XtXxXI.I.nX4XcXnXy.a     ",
"c P.nX.XsXH.G.XXcX|.H.sXsXtXsXbXpXaXbXX.f 2 p [ 4XvXaX!.] [ <XpXbX~.' > 4 A 4.nXpXpXxXpXtXpXsXuXtXcX|.H.xXsX.XnXa.e   ",
"] E.nX.XtXH.G.H.XXnXXXH.4XxXxXdXvXnX+.Z O     J xXr.& Q $ J W $ '.2X%     p D 2.nXbXpXxXtXtXxXuXtXcXpX4XcXiX=XhXS.A , ",
"W.;XmXcXxX=XJ.G.d.4XnXXXsXaXbXD.o./ d           ( n             E )         w J / ..~.bXaXtXG.tXcXH.|.nXtXcXnX+X6Xs.4 ",
"lXbXcX4XcXsXj.j.I.j.XXnXsX1XnXh.e                                               . l U.nX4XxX=XtXxXXXXXtXpXsXxX1XnXP.g ",
"aXaXsXfXsXsX|.G.j.V.H.<XcX@XnXr.#                                                 @ _.nX#XcX<XtXtXxXnXuXtXsXxX1XnX^.1.",
"mXuXtXxXtXsXcXT.V.J.j.H.4X3XnXn.M                                                 N {.nXtX4XG.tXsX3XtXpXtXpXsXiXpXzXwX",
"sXsXuXpXpXuXsXuXxXXXH.H.V.pX@XnX[.,                                             ^ rXnX$XcXpXpXpXuXpXuXpXpXpXcX#XnXb.; ",
"cXcXsXpXsXsXtXxXxXpXtX4X4XtXdXeXnX3XR                                         Q nXbXtXsXxXxXsXuXpXsXxXsXsXsXcX$XnXP.t ",
"~ [.cXyX1XT.cXT.XX4XY.nXxXpXzXaX}.q.Y                                         Y r.1XpXbX;XJ.pXtXtX<XE.2XsXpX2XcXv.^   ",
"O _.nX@X7Xj.|.|.3XxXH.T.xXnX].nX[.%                                             s bXnX&XaX<XnXcXxXK.oXnXsXsX%XnXe.X   ",
"v l.aX2XsXH.d.xXcXsXnXY.|.aXrXaXA.R                                             W L.aXiXpX3X$XXX<XnX*Xx.cXsX,XaX&.z   ",
"= A 7.hX-XG.H.XXsXtXsXsXT.-XhXS.S -                                             $ ] ~.hXZ.XXnXH.oXnXE E dXsXjX3.i <   ",
", D 7.hX-XH.H.G.XXxXtXsXsX6XhXD.F ,                                             s [ ^.hX6XnXtXtXnXE ( nX4X7XvX,.h 4   ",
"b n.nX$XcXtXG.V.J.T.nXtXH.tXrXdXK.T                                             W ;XnX{.nXm.v tXnXm.mXnXtXsX4XnXp.t   ",
"+ b.nX}.nXsX3XH.d.H.T.XX=XcX}.nXNX%                                             & bXnX].nX].a.4XpXnX<Xk.cXaX}.nXe.X   ",
"0.[.cXeXdXxXnX<XG.G.d.d.XXsXxX7X3Xv.T                                         ! `.4X4XxXpXcXnXsXsX$X=XaXsXsXiXaX_.q.  ",
"nXnXsXsXpX<X4XnXXXd.T.|.H.<XcXtXnX{.R                                         W tXnXtXsXcX3X$XsXpXxXmX5XsXtXxX%XnX[.r ",
"uXxX4XcX<XG.tXcXY.j.J.pXxXdX+XnXc.@                                             ; oXdX@XcXsXsXpXsXsXsXnXtXtXcX$XnX`.6 ",
"uXsX4XxX3XH.4XnXI.G.H.J.sX2XnXx.t                                                 v ].nX.XcXsXtXpXpXsXsXtXtXsXpXsXsXiX",
"dXsXtXsX4XV.H.pXsXXXV.H.aX2XnXt.@                                                 - _.nX#XcXsXsX{.nX*.n nXsXeX8XnXW. .",
"lXnXdXuXtXXXH.V.sX<XV.Y.XX=XnXk.g o 2           q                 q           * X C R.nX8XnXpXpXcXnX,XP.sXsXxX2XnXb.w ",
"7.E.bXdXnXxXJ.f.<XtXY.j.j.1XnXD.<.q.M g         y.Y   a     r   ( e.        u b e.1.~.nX7X&XxXdX*.c.{.a.xXnXnXqXQ.;.5 ",
"S E.nXF.mXcXY.V.T.sXsXY.H.XXuXaXvXnX2.D +     a mXt.Y %.8 z %.K NXqX9     q ' 8.nXvXdXuXnXfXcXxXn #Xc.c nXpXF.nXB.B ; ",
"x x.nXmXnXsXcX|.j.T.sXsXH.j.XXnX9XeXlX1.Z 9.x  .-XbXnX-X}  .dXnXvXW.} L 5 ' B.hX4X8XmXsX,X$XpXtXnX,X2XnXpXcXfXcXy.p   ",
"  t a.nX5XsXsXsXXXd.T.tXJ.j.<XsXtXtXsXtXtX3XtXtXtXsXsXsXpXpXsXsXiXtXiX5XtXpXpXuXsXpX<XnX*.E xXtXnX( ( nX,XtXnX*.0     ",
"    P K *.cXpXdXsXf.H.uXtXG.|.cXxXnXaXiXvXnXxXzXcX%X XiXkX2X3X%XpXxXzXnXnXtX5X8XtXxXtXsX.XP.sXpXiXiXE.fXfX_ L         ",
"          =.MXjXE.7XuXsXxX3XXXcXtX&XxXdXE.].2X6XpXxXnXdX8XnXnXcXsXpX9X[.*XxXbXnXnXtXuXtXxXnXuXcXcX7XnX#X%.            ",
"          p 6.dXgXdXdXbXuXsXcX<XpXnXsXxXnXnXcXbXcXi.&.nX3X>.8XnX;XnXbXnXnXN.~.].*.xXnX4X4X%XnX8XxXgX>X>.%             ",
"          , C u.P./.vX7XsXxX<XnXeXc.iXnXL.!.rXpXnX( -.nXE...oXbX;XnX=Xc.vX| 4.jXb .XnX.XnXdXpXlX/.[.&.h 7             ",
"            , = f X.bXxXsXnX$XnX].v U.nXo.X.nXpX1XnX4X;XfXyXdXnX XnX}.n P.nX$XpXnXcXtXuXnXpXbX7X| u 1 ;               ",
"                L Z +.bXxX7XnXXXH.3X4XtXtX4XbXuX1XbXo.@.qXT U.nX XcXsX4X4XnX|.H.cXdXtXnX7XbX7X| k                     ",
"                  s Z ..9XxXdXuX4XnXnX4XnX3Xd.sXxX X>X>XcXn.$ M.nXyXpXsXnX..o.nXF.v OXnX0X>X| k                       ",
"                    8 l qXvX,XnXuXk.| E.sX;XnXtX3XnX(.w.sXnX).NXcXyXaXnXuX/._ i.cXa.MX7XzX[.u                         ",
"                      3 6.dXgX>XxX|.X.Z.nX!.4.xXxXg.K q.nX.X7.6XyXdXrXp.{.nXy._ nXcX9XgX6X#.1                         ",
"                      s Z :.qXcXnXxXnX1XnXB.[ sXcXm b.vX'.nX| f.nXaX&XT {.dXoXnX4XG.7XqX$.h >                         ",
"                        3 8 p.kX4XsXsXtXtXsXnXuXsXyXnXi.> pXnXeXcXtXsXnXsXsXuXxXsXsXsX#.% 5                           ",
"                            q *.nXfX4XcXuXsXxXtXtXdXdXrX5XpXcXsXsXtXpXdXpXsXnX,XnXsXW                                 ",
"                            X ) nX%X5XnXcXsX1XcXnX}.&XaXnXlX.X.XiXcXdX2XmXcXnX.XpXnXU                                 ",
"                              U u.nXlXqX=X7XbXOX$XsXnX-XO.,.dXnXfX&X0XcX1X.XqXnXsX*.P                                 ",
"                                a a.7.:XnXcXmXnXnXv.e.=.f h p.e._.nXbXsXnXnXQ.7.i.0                                   ",
"                                  e A p.P./.kXb.U.^ X c < 4 t . q.U.`.uXQ._.&.B y                                 L I ",
"                                    , 4 g 1.wX; t                 r 6 sX..w 5 ;                                   I z."
};
