/* XPM */
static char *_b22e1cec11b4c08f06acd8fe70b9b6cDEZQZZ2loQsI1hLC[] = {
/* columns rows colors chars-per-pixel */
"59 59 254 2 ",
"   c None",
".  c #000001",
"X  c #0C0501",
"o  c #09070A",
"O  c #140C02",
"+  c #150707",
"@  c #1A1405",
"#  c #040217",
"$  c #161913",
"%  c #390204",
"&  c #291506",
"*  c #30170D",
"=  c #372712",
"-  c #000024",
";  c #13002E",
":  c #2F0331",
">  c #3A3A34",
",  c #470105",
"<  c #480018",
"1  c #55000A",
"2  c #670404",
"3  c #710B0B",
"4  c #502A09",
"5  c #673402",
"6  c #6D3211",
"7  c #480A2C",
"8  c #6D1134",
"9  c #4D302B",
"0  c #7B3330",
"q  c #775204",
"w  c #574534",
"e  c #6C502C",
"r  c #6F5A03",
"t  c #383B4C",
"y  c #550E47",
"u  c #751A47",
"i  c #6C174F",
"p  c #792549",
"a  c #7B2756",
"s  c #7C3146",
"d  c #640F69",
"f  c #7E2A74",
"g  c #3D4960",
"h  c #5A5559",
"j  c #524C4B",
"k  c #6A5A4E",
"l  c #766F55",
"z  c #51556F",
"x  c #66716E",
"c  c #871C04",
"v  c #962A07",
"b  c #863615",
"n  c #983616",
"m  c #912E0B",
"M  c #A6390F",
"N  c #8B3634",
"B  c #A43B23",
"V  c #B03F20",
"C  c #844605",
"Z  c #825404",
"A  c #995C00",
"S  c #A84405",
"D  c #B74700",
"F  c #BA5A03",
"G  c #A2421B",
"H  c #A34718",
"J  c #B35615",
"K  c #B06506",
"L  c #9B4829",
"P  c #994639",
"I  c #8B4832",
"U  c #A64727",
"Y  c #B74C26",
"T  c #A54B38",
"R  c #A95238",
"E  c #AB5637",
"W  c #B75A38",
"Q  c #B2572C",
"!  c #8B672C",
"~  c #B8622C",
"^  c #BB6635",
"/  c #996000",
"(  c #C45A01",
")  c #C1500E",
"_  c #C86503",
"`  c #D86C00",
"'  c #C97700",
"]  c #D57703",
"[  c #CC6D18",
"{  c #F97A00",
"}  c #E77A03",
"|  c #C35A31",
" . c #DB7626",
".. c #CC6A30",
"X. c #E27C30",
"o. c #8D364A",
"O. c #873666",
"+. c #882B78",
"@. c #994A4D",
"#. c #AE5B45",
"$. c #AE5C4A",
"%. c #A75744",
"&. c #B55B44",
"*. c #AD5351",
"=. c #8B6D51",
"-. c #B76249",
";. c #B46655",
":. c #B27053",
">. c #944F6D",
",. c #B25768",
"<. c #B46F71",
"1. c #9D6665",
"2. c #C76548",
"3. c #C66D57",
"4. c #C6775C",
"5. c #D76F44",
"6. c #C57A6A",
"7. c #C9726E",
"8. c #DF6C6B",
"9. c #B6862F",
"0. c #A89200",
"q. c #D68C08",
"w. c #E78803",
"e. c #E79504",
"r. c #FE9400",
"t. c #F89905",
"y. c #ED9210",
"u. c #FDAB02",
"i. c #FDA70A",
"p. c #FFB608",
"a. c #FDA61A",
"s. c #FFB916",
"d. c #E7B50F",
"f. c #CE8730",
"g. c #EE9531",
"h. c #FBA623",
"j. c #FCB530",
"k. c #FFCB15",
"l. c #FCC90B",
"z. c #FFC726",
"x. c #FEC637",
"c. c #FFD73F",
"v. c #FFD426",
"b. c #B88853",
"n. c #988A7C",
"m. c #B49171",
"M. c #D38C52",
"N. c #E98F50",
"B. c #D4AB47",
"V. c #FEB957",
"C. c #F2B04C",
"Z. c #D58668",
"A. c #C88679",
"S. c #CC8F72",
"D. c #F9B56A",
"F. c #F1B070",
"G. c #DDA46D",
"H. c #FFC747",
"J. c #F8CF52",
"K. c #FFD666",
"L. c #F9CC7A",
"P. c #FFD977",
"I. c #FECC65",
"U. c #FFFC6E",
"Y. c #FFFC7A",
"T. c #FFEA7A",
"R. c #EEDD5D",
"E. c #5C6A84",
"W. c #B97B86",
"Q. c #AD7091",
"!. c #A878B2",
"~. c #9F668B",
"^. c #CB5389",
"/. c #C77F85",
"(. c #A678C7",
"). c #BA8A9A",
"_. c #B49582",
"`. c #B0A993",
"'. c #BB8DA8",
"]. c #9AA3B8",
"[. c #BAA9A4",
"{. c #ABACAF",
"}. c #CB9587",
"|. c #D69689",
" X c #CE938F",
".X c #D0A992",
"XX c #FAB986",
"oX c #ECB390",
"OX c #C893A7",
"+X c #C790B2",
"@X c #D8B7A8",
"#X c #D7B4B9",
"$X c #CBACB0",
"%X c #E9B6A8",
"&X c #E2BDB5",
"*X c #EFB0AC",
"=X c #E09E89",
"-X c #FAC687",
";X c #FDD887",
":X c #FBD596",
">X c #F1C797",
",X c #FFFF95",
"<X c #FAF18B",
"1X c #D0C2B5",
"2X c #EAC3A7",
"3X c #F9C7A7",
"4X c #FAD8A8",
"5X c #E9C7B6",
"6X c #F9C9B4",
"7X c #FDD6B8",
"8X c #ECD6B5",
"9X c #FFE7AA",
"0X c #FFF9A8",
"qX c #FEE5B9",
"wX c #FFFDB6",
"eX c #E0E0A6",
"rX c #B7B8CB",
"tX c #D1BCC7",
"yX c #E3BCC8",
"uX c #BCC4D8",
"iX c #DAC5D6",
"pX c #DBD9D2",
"aX c #E8C9C9",
"sX c #E9D4CC",
"dX c #F7D9C8",
"fX c #E8C9D4",
"gX c #E9DAD9",
"hX c #F7DBD5",
"jX c #F4CBCD",
"kX c #FEE7C9",
"lX c #FFF7C6",
"zX c #E9E5D8",
"xX c #FAE7D7",
"cX c #FEF7D9",
"vX c #DDCFF9",
"bX c #EADBE8",
"nX c #E5DAFA",
"mX c #F5DDF3",
"MX c #DFE4E3",
"NX c #ECE5E8",
"BX c #FCECE4",
"VX c #F6E9E8",
"CX c #FEF2E4",
"ZX c #FFFCE3",
"AX c #FEF3EA",
"SX c #FFFDEB",
"DX c #F4F0E4",
"FX c #ECE4F6",
"GX c #F6EAF6",
"HX c #ECFBFD",
"JX c #FEFDF3",
"KX c #FEFEFE",
"LX c #F8F6FB",
"PX c #EEF3E7",
/* pixels */
"                                                                                                                      ",
"                                                                                                                      ",
"                                                                                                                      ",
"                                                                                                                      ",
"                                                                                                                      ",
"                                                                                                                      ",
"                                                                                                                      ",
"                                                                                                                      ",
"                                                                                                                      ",
"                                                                                                                      ",
"                                                                                                                      ",
"                                                                                                                      ",
"                                                                                                                      ",
"                                                                                                                      ",
"                                                                                                                      ",
"                                                                                                                      ",
"                                                                                                                      ",
"                                                                                                                      ",
"                                                                                                                      ",
"          b                                                                   .                           b           ",
"      P N U L G M G U             ..| W %.@.&.5.5...W Q Y H M H U U R P 9 + . . . .                   P P L G B G B G ",
"      W W &.E $.$.$.E @.          N N T U Y U I P N T &.-.;.*.$.-.-.W U 6 + . . . .                   | W *.#.$.$.$.#.",
"      ..2.2.7.}. X6.<.@.8     8 y y 8 B ) F C 9 : y p -.8.}.'.OXA.5. .J b 7 ; # + .                   5.2.3.7._.}.6.6.",
"      W 2.4.|.6XkX3X X,.P Y Y N i y o.V y.q.Z @ # ; i 7.XX%XsXfX*XC.h.y.[ o.7 ; o .                   W 2.Z.=X6X*X%X=X",
"      6 0 :.oXwXcXwX>Xm...f. ...@.o.@. .u.l.r @ # ; a Z.P.,XlXkX:XH.l.p.g.*.d ; o .                   0 I b.:XwXwX9X:X",
"      . * e B.U.<XU.R.f.g.a.h.y.[ [  .i.l.l.0.r 4 0 | g.c.R.T.T.J.k.l.l.X.,.d : o .                   + = e J.U.Y.U.R.",
"      . . q 0.k.v.k.y.e.i.i.i.i.i.t.i.i.u.u.t.e.w.y.t.u.p.i.a.a.i.u.u.i.X.O.i : . .                   . & q q.k.k.s.q.",
"      # & 4 F { { ] _ ] w.r.r.w.t.e.w.} ` ] g.h.z.k.p.t.] _ [ ] } w.w.[ T o.y 7 = *                   o & 5 _ w.{ ` F ",
"      9 6 6 S D D D S D ( ( ( ( ( _ ( ( D J | g.j.k.u.w.A m b S _ ` F U N s s 0 N I                   9 6 b S D D D M ",
"      R P R R R R E R R T R T %.@.T E ~ Q @.o.@...t.i.y.W a a o.E | W T o.T E T R R                   T T R R R R R R ",
"      ..2.3./.).'.'.'.Q.W.W.W.<.>.>.W.|.|.1.9 + % C X.8.,.+.d d >.;.;.3.5. .[ J P I                   5.2.3.W.).'.). X",
"      | 2.A.@XbXGXnXfXyXyXbXhXtX[.$XyXBXhX[.j o . , *.^.^.+.i o.@.,.|.XXJ.s.` q 4 #                   2.2.|.&XNXnXbXfX",
"      m %.S.sXKXKXSXkXhXcXKXKXJXPXPXJXKXKXpXx $ o O 8 f +.p 3 v E A.%X9XY.z.' 4 X #                   U $..XxXKXKXAXdX",
"      c @.m.zXKXKXqX>XXX4XSXKXKXKXKXKXKXKXPX{.x > O # - - + 2 S ] G.sXcX,Xv.q.5 X #                   n %.[.PXKXZX4XF.",
"      c %.}.zXJXkXG.~ ) M.2XAXKXKXKXJXJXKXKXKXgXm.w X . . . 5 _ e.F.kXZX0Xx.w.5 O -                   n ;.$XZXZX2XM.Q ",
"      n -.|.dXVX$XP 2 2 c <.&XxXKXKXVXgXNXKXKXKXpXl $ . . + q e.s.L.zXJXwXz.] 5 O #                   V :.5XVXaX<.N 3 ",
"      M 2.=XsXbX).8 % % 1 o. X5XcXLXmXnXnXKXKXKXPX`.l 9 t l 9.C.K.8XPXKX0Xz.] 5 & -                   V 6.5XVXtX1.7 , ",
"      n -..XhXVXOXa < , 8 >.|.3XkXBXVXGXGXKXKXKXcX8X@X.X.X@X-X-X:XsXFXSX,Xz.' 5 O #                   B 4.6XBXiXQ.8 < ",
"      m $.|.xXKXiX~.i i O.W.%XkXcXSXJXSXZXZXPXDXzXhXdXkXcXkXqX7XjXiXFXcX,Xx.' 4 X .                   B 4.2XSXbX+X>.u ",
"      v $.|.zXKXGXtXW.,. X%XdXxXJXJXJXSXZXCXcXzXpXzXcXZXJXZXCXBXbXiXMXSXwXK.9.5 X .                   G :.@XDXLXfX X,.",
"      m -.A.sXKXJX7XoXoX%X6X7X7XdXCXJXJXAXBXBXBXBXAXBXSXSXCXJXSXVXpXMXSXcXqXb.w X .                   U ;..XxXKXxX3X=X",
"      m #.}.sXSXcXqX4X7XqX9X-XD.XXdXGXKXKXJXJXJXKXHXHXHXHXLXKXKXLXMXNXKXKXKX$Xj o .                   U ;..XVXKXSXqX-X",
"      n $.}.jXSXcXlXkXDXZX9XH.a.g.oXmXLXKXJXZXJXKXHXHXHXKXKXKXKXLXMXNXKXKXKXiXh o .                   Y ;.OXBXKXKXcX4X",
"      n $.}.sXJXJXZXVXFXAX9Xx.t.r.D.7XmXGXCXxXCXAXLXAXLXAXAXKXJXxXpXgXKXKXKX[.h $ .                   U $.|.xXKXKXCXhX",
"      n #.}.sXKXKXKXFXnXhX4XH.s.k.H.I.I.P.:XkXBXCXqX<XL.oX1XiXiX[._._.[.lXlX.Xk o .                   T #.S.7XKXKXAXbX",
"      n #.}.sXKXKXKXNXsX6X3X:XP.K.x.p.u.u.C.7XBXcXT.s.q.A j z z > $ = w M.H.B.q @ .                   R W Z.3XxXJXGXbX",
"      n &.A.aXKXKXJX7X3X3X6X7X3XXXC.r.r.r.h.8XDXcX<Xa.K * X # # . . . @ / t.w.Z O .                   R #.M.oXlXSXCXzX",
"      n $.S.8XZXcX0X;X;X7XhXyX+XW.^ ` { r.C.4XJXKXwXI.9.= . # . . . . @ A t.e.Z O .                   W 2.Z.3XZXKXKXGX",
"      M #.|.5X9XK.j.H.;XkXbX+X>.u 8 B 5.D.-XkXSXKXJXqXm.9 . . . . . . & A t.e.Z O .                   W -.Z.3XZXKXKXDX",
"      v -. X%X-Xh.r.h.;XAXnX!.8 , < O.OXyXdXxXxXDXcX3Xm.w @ X O + . . & / t.q.q O .                   P E 4.oXqXcXxXgX",
"      v -. X6XXXh.r.h.;XJXnX!.7 % < O.+XjXhXVXgX8XoXN.f.! e k k e 4 4 q ..C.b.e @ .                   P L ~ M.L.qXhXbX",
"      v ;.$XhX7XC.w.a.P.CXnX!.8 1 3 @.|.*XdXGXbX8XC.y.e.g.}.iXaXS.K K y.V.:X_.j o .                   %.H F w.V.4XxXFX",
"      v ;.#XLXJXP.s.i.K.xXvX(.a 3 m ~ g.D.7XLXKXcXK.s.l.K.cXKXKXwXB.d.J.,XlX$Xh o .                   ,.~ ` t.x.0XJXHX",
"      v ;.$XGXSXT.s.p.K.xXvX(.O.3 m [ g.D.3XmXLXSX0XY.<XwXKXKXKXJXeX<XwXSXJX1Xh $ .                   8. .w.u.c.0XJXLX",
"      v :.#XHXSXP.p.i.K.xXnX(.p 2 c | N.XX7XBXLXKXJXcXSXJXKXKXKXLXMXDXSXHXcX`.w o .                   ;.[ ] u.c.0XSXHX",
"      v $. X#XoXg.w.g.-XBXnX!.u 1 3 >.=X6X6X@X.X{.].rXiXrX{.[.[.{.].].rX1XG.=.9 X .                   N 6 C / f.oX2XfX",
"      n $.<.S.:.J F M.>XBXGX'.u % 1 O.*XdX3Xm.k t t z E.z j > > t g g z h w = @ . .                   4 & & 4 e :.b.A.",
"      U E -.-.U v U :.%XBXVX+Xa : 7 O.*X7X%X=.$ . . . $ $ . . . . X . . o X o . . .                   o . . . * 0 E 2.",
"      T R Q U c 3 N <.1XBXBXOXu 7 7 O.*XdXoX=.& . . . $ $ . . . . . . . . . . . . .                   o . . . & 3 v v "
};
