/* XPM */
static char *_6bb0a39417040d7b919a8b2ddabf9fagTpmk9myh1oCwD2y[] = {
/* columns rows colors chars-per-pixel */
"32 32 42 1 ",
"  c #040200",
". c #070302",
"X c #070402",
"o c #020005",
"O c #080401",
"+ c #0F0704",
"@ c #0C0805",
"# c #050009",
"$ c #05000A",
"% c #100804",
"& c #150E0B",
"* c #1D0F08",
"= c #1B110C",
"- c #0B0014",
"; c #311C0F",
": c #2E2019",
"> c #150022",
", c #250038",
"< c #413128",
"1 c #443228",
"2 c #46332D",
"3 c #2F0056",
"4 c #3B0261",
"5 c #5E4B40",
"6 c #756358",
"7 c #978376",
"8 c #3D008B",
"9 c #4C018B",
"0 c #680A8C",
"q c #7E08B3",
"w c #6B00FF",
"e c #8E09EE",
"r c #9C00FF",
"t c #A907FF",
"y c #9421FF",
"u c #CB00FF",
"i c magenta",
"p c #FF0CFF",
"a c #BA4DFF",
"s c #C66CFF",
"d c #FF79FF",
"f c #FF89FF",
/* pixels */
"22222222222222222222222222222222",
"22222222222222222222222222222222",
"22222222222222222>22222222222222",
"2222222222222222>d>2222222222222",
"222222222222222*6i>2222222222222",
"222222222222222*6r*2222222222222",
"222222222222222>56O2222222222222",
"22222222222222>d,6O2222222222222",
"22222222222222>i,:>2222>22222222",
"2222222222222>ir%-f>2*>s>2222222",
"2222222222222>t6-dr,*7-a>2222222",
"222222222222>pq6-uq,;6-r>2222222",
"222222222>22>t7:-qq,5<-q>2222222",
"22222222>d>2*76:%7q,1:%0>2222222",
"22222222>i*2*7<%76,a,=%6*2222222",
"2222222>fr6O;6:%75;u9%6%*2222222",
"2222222>r6;<;6:%6;7r9-6:O2222222",
"2222222*q6;<%5:%6%79-65=*2222222",
"2222222*56;<%5=%6%<9-6y$22222222",
"2222222*55%:.1y%:%<9-5w>22222222",
"2222222*;1%: 1w%:X<-5w$222222222",
"2222222*6%=@,rw%=X:-w9>222222222",
"2222222*<%@$e,9X@,=-99->22222222",
"2222222*::O,tq-X-w-94-6a>2222222",
"2222222O--@,q-&$r99--5;w$2222222",
"2222222$98$:-&@,9--%==O$22222222",
"22222222$oO@X@,8-=::OO2222222222",
"22222222222 @-833o  222222222222",
"222222222222OOooo222222222222222",
"22222222222222222222222222222222",
"22222222222222222222222222222222",
"22222222222222222222222222222222"
};
