/* XPM */
static char *_e3c810f11dc4cd9d39b023dfbbce70bVJ37lrqksRPYe22l[] = {
/* columns rows colors chars-per-pixel */
"59 59 19 1 ",
"  c #3A4041",
". c #6D1823",
"X c #190F20",
"o c #EFECEC",
"O c #C2360F",
"+ c #D64F5D",
"@ c #D48A19",
"# c #F7F6F7",
"$ c #CEB7B9",
"% c #5B5168",
"& c #C9B8BD",
"* c #0C3F0F",
"= c #63AD45",
"- c #0F5314",
"; c #116116",
": c #7EC262",
"> c #85BF13",
", c #67940F",
"< c white",
/* pixels */
"                                                           ",
"                                                           ",
"                                                           ",
"                         ........                          ",
"                        ..........                         ",
"                       ......XXXX..                        ",
"                      .........XXX..                       ",
"                     ...........XXX..                      ",
"                     .X.....X....X...                      ",
"                     .X.....XX..XX  .                      ",
"                     .XX...XXX.XXX  .                      ",
"                     .XXXXXXXX..XXX .                      ",
"                     .XXXXXXXX...XX .                      ",
"                    ..XXXXXXXX...XXX                       ",
"                    .XXooXooXXX...XX                       ",
"                    .XXXXXXXXXXX..XXX                      ",
"                    .XXXXXXXXXXX..XXX                      ",
"                    .XXXXXXXXXXX..XXX                      ",
"                    ..XXXXXXXXX...XXXX                     ",
"                   ...XXXXXXXX...XXXXX                     ",
"          O        ....XXXXXX....XX..XX                    ",
"                  XX....XXXX....XXX....                    ",
"          O      X+XX...XXX....XXX......                   ",
"          @     X+..XX..X.X....XX........                  ",
"          #    XX....XX.X..X..XX..X......                  ",
"              +XXX.....XX..X.XX...XX......                 ",
"             +...XX.....X..X......XX......                 ",
"         $o$ .....X......X.X.......XXXXX..                 ",
"         $oo$.....X........X......XXXX..X..                ",
"         $ooo%%...X..............XX..XX....                ",
"          &&%XX...X.X..........XXX....X....                ",
"            .XX.....X.........X.......X....                ",
"            .XX......X.X.....X............X                ",
"            .XX..X..XX.X....&&&&%X.......XX                ",
"            .XX..X..XX.X...oooo&%X......XXX                ",
"            .XX..X..X.XX..*&ooo*=X.....XXXX                ",
"            .X...X..X.X...*.$&$X=X....XXXX                 ",
"            .X..XX.....XXX*..XXX=X....XXXX                 ",
"            .X..XXX....X...*.XX=XX...XXXXX                 ",
"             X..XXX..X.X.X..**=XXX..XXXXX                  ",
"             .X.XXXXXX.X.X...*XXX..XXXXXX                  ",
"             .X.XXXXX....X..-;:XX..XXXXXX                  ",
"             .X..XX......X.-;;;:X.XXXXXX                   ",
"             .  . XX....X..->,;:XXXXXXXX                   ",
"             .  . XXX...X..->,;:XXXXXXXX                   ",
"             .. .  XX..XX..->,;:XXXXXXXX                   ",
"           . . .   XX..XXX.-;;;:XXX XXXX                   ",
"            .       X..X.X.X-;:XXXX  XXX                   ",
"                    X..XXX.X.XXXXXX   XX                   ",
"                    XX.X.X.X.XXXXXX   XX                   ",
"                    XX.X.X.X.XXXX X   XX                   ",
"                     X...X.X.XX X X   XX                   ",
"                      X..X. .XX       X                    ",
"                      XX.X. .XX       X                    ",
"                       X.X... X      XX                    ",
"                       XXXX.. X      X                     ",
"                        XX  ..                             ",
"                             .                             ",
"                            .                              "
};
