/* XPM */
static char *_bc164260f63403aef0bb03b5e5c18b6CS5iUwwSrBi0MOoE[] = {
/* columns rows colors chars-per-pixel */
"32 32 35 1 ",
"  c None",
". c black",
"X c #010001",
"o c #010101",
"O c #030000",
"+ c #020101",
"@ c #000201",
"# c #000002",
"$ c #010102",
"% c #020102",
"& c #020202",
"* c #000700",
"= c #020204",
"- c #040404",
"; c #000F00",
": c #090909",
"> c gray5",
", c #141313",
"< c #151515",
"1 c #181818",
"2 c gray10",
"3 c #232323",
"4 c #232324",
"5 c #2F2F2F",
"6 c #323232",
"7 c #343434",
"8 c #3A3B3A",
"9 c #3F3F3F",
"0 c gray28",
"q c gray33",
"w c #585858",
"e c #B0291B",
"r c #CB1703",
"t c #DD1404",
"y c #E50D0E",
/* pixels */
"                                ",
"       o,      oo               ",
"       o,      oo               ",
"       oo:6655oo,               ",
"       ooooooooo,               ",
"       oooooooooo               ",
"      ooOerooeroo,              ",
"      oooyt=oyt=o,              ",
"      ooo;*oo;*oo,              ",
"      oooooooooooo              ",
"      2oooooooooooo3            ",
"       ooooooooooooo2           ",
"        3oooooooooo,oo          ",
"        <ooooooooooo,oo   o,    ",
"        oooooooooooo,,o7  ooo   ",
"        oooooooooooooo,o8  ooo  ",
"        oooooooooooooo,,o   oo  ",
"        ooooooooooooooo,oq  ooo ",
"        ooooooooooooooo,,o  oo, ",
"       >oooooooooooooooo,o  oo, ",
"       ooooooooooooooooooo  oo, ",
"       ooooooooooooooooooo  oo, ",
"       ooooooooooooooooooo ooo, ",
"       ooooooooooooooooooo oo,, ",
"       oooooooooooooooooooooo,o ",
"       oooooooooooooooooooooo,  ",
"      oo,0oooooooooooooooooo,,  ",
"      oo, 9oooooooooooooooo,,   ",
"     wooooooooooooooooooooo,    ",
"     oooooooooooooooooooooo     ",
"                                ",
"                                "
};
