/* XPM */
static char *d8cd4fbb18ff483f87ecd23e692a3a81yrAB5iv72idpQz4J[] = {
/* columns rows colors chars-per-pixel */
"32 32 21 1 ",
"  c #A1957A",
". c #ADB591",
"X c #ABA589",
"o c #85755C",
"O c #664839",
"+ c #4D381C",
"@ c #948465",
"# c #ECD093",
"$ c #C7C5A7",
"% c #736244",
"& c #4D401F",
"* c #916A3B",
"= c #5E4522",
"- c #3B2717",
"; c #9A8B6E",
": c #BA9961",
"> c #70592B",
", c #3D2C11",
"< c #382F24",
"1 c #433119",
"2 c white",
/* pixels */
" ..XXoO+@#$....X ..XXoO+@#$....X",
".XX   %&#$.......XX   %&#$......",
"ooo***%=$Xooooooooo***%&$Xoooooo",
"ooooo*%=Xoooooooooooo*%=Xooooooo",
"ooooo*%= oooooooooooo*%= ooooooo",
"ooooo*%= oooooooooooo*%= ooooooo",
"=====&+-+&=&+-+&=====&+++&=&+++&",
"$....X ..XXoO+@#$... X ..XXoO+@#",
".......XX   %&#$..X o..XX   %&#$",
"ooooooooo***%=$X@o%++@ooo***%&$X",
"oo%%%%ooooo*%=Xoo%+-=@ooooo*%=Xo",
"o%=+-&@oooo*%= o%+-=%;ooooo*%= o",
"o%+-&=:@ooo*%==%%+=% oooooo*%= o",
"+++&=&+-+&=====&+++&=&+-+&=====&",
" ..XXoO+@#$....X ..XXoO+@#$....X",
".XX   %&#$.......XX   %&#$......",
"ooo***%=$Xooooooooo***%&$Xoooooo",
"ooooo*%=Xoooooooooooo*%=Xooooooo",
"ooooo*%= oooooooooooo*%= oo%%%%o",
"ooooo*%= oooooooooooo*%= o%O=++=",
"=====&+++&=&+++&=====&+++&=&+++&",
"X....X ..XXoO+@#$....X ..XXoO+@$",
".......XX   %&#$.......XX   %&$:",
"ooooooooo***%=$Xooooooooo***%=:o",
"ooooooooooo*%=XooooO>oooooo*%=Xo",
"ooooooooooo*%= oooO++@ooooo*%=Xo",
"ooooo*o*ooo*%= ooO,,=:o*ooo*%=Xo",
"o*oo***o*o**%= oO,+=@*o*o*o*%=X*",
"***%********=+=****%********=+=*",
"=====&+++&=&+++&=====&+++&=&+++&",
"<111<<<<<111<11<<11111<11<<<<<<1",
"--------------------------------"
};
